# xmcd
#
# Track frame offsets: 
#        150
#        12575
#        22372
#        37565
#        46512
#        59392
#        69895
#        75265
#        91005
#        99527
#        111525
#        118540
#        137407
#        146202
#        160465
#        181127
#        198255
#        213365
#        232345
#        242957
#        262275
#        278222
#        292532
#
# Disc length: 4065 seconds
#
# Revision: 0
# Processed by: cddbd v1.5.2PL0 Copyright (c) Steve Scherf et al.
# Submitted via: ExactAudioCopy v0.95a3
#
DISCID=440fdf17
DTITLE=James Talley - Got No Bread, No Milk, No Money, But We Sure Got
DTITLE=A Lot Of Love and Tryin' Like The Devil
DYEAR=1974
DGENRE=Country
TTITLE0=W. Lee O'Daniel And the Light Crust Dough Boys 
TTITLE1=Got No Bread, No Milk, No Money, But We Sure Got A Lot Of Love
TTITLE1=
TTITLE2=Red River Memory
TTITLE3=Give Him Another Bottle
TTITLE4=Calico Gypsy
TTITLE5=To Get Back Home 
TTITLE6=Big Taters In Sandy Land
TTITLE7=Intro
TTITLE8=No Opener Needed
TTITLE9=Blue Eyed Ruth And My Sunday Suit
TTITLE10=Mehan, Oklahoma
TTITLE11=Daddy's Song
TTITLE12=Take Me To The Country
TTITLE13=Red River Reprise 
TTITLE14=Forty Hours
TTITLE15=Deep Country Blues
TTITLE16=Give My Love To Marie
TTITLE17=Are They Gonna Make Us Outlaws Again?
TTITLE18=She Tries Not To Cry
TTITLE19=Tryin' Like The Devil 
TTITLE20=She's The One
TTITLE21=Sometimes I Think About Suzanne
TTITLE22=You Can't Ever Tell
EXTD=
EXTT0=
EXTT1=
EXTT2=
EXTT3=
EXTT4=
EXTT5=
EXTT6=
EXTT7=
EXTT8=
EXTT9=
EXTT10=
EXTT11=
EXTT12=
EXTT13=
EXTT14=
EXTT15=
EXTT16=
EXTT17=
EXTT18=
EXTT19=
EXTT20=
EXTT21=
EXTT22=
PLAYORDER=
